<svg width="27" height="25" viewBox="0 0 27 25" fill="none" xmlns="http://www.w3.org/2000/svg">
<path d="M4.75 18.5H3.5C2.83696 18.5 2.20107 18.2366 1.73223 17.7678C1.26339 17.2989 1 16.663 1 16V3.5C1 2.83696 1.26339 2.20107 1.73223 1.73223C2.20107 1.26339 2.83696 1 3.5 1H23.5C24.163 1 24.7989 1.26339 25.2678 1.73223C25.7366 2.20107 26 2.83696 26 3.5V16C26 16.663 25.7366 17.2989 25.2678 17.7678C24.7989 18.2366 24.163 18.5 23.5 18.5H22.25" stroke="#5F5C5C" stroke-opacity="0.92" stroke-width="2" stroke-linecap="round" stroke-linejoin="round"/>
<path d="M13.5 16L19.75 23.5H7.25L13.5 16Z" stroke="#5F5C5C" stroke-opacity="0.92" stroke-width="2" stroke-linecap="round" stroke-linejoin="round"/>
</svg>
