<svg width="35" height="35" viewBox="0 0 35 35" fill="none" xmlns="http://www.w3.org/2000/svg">
<path d="M23.3333 16.0416C25.7541 16.0416 27.6937 14.0875 27.6937 11.6666C27.6937 9.24579 25.7541 7.29163 23.3333 7.29163C20.9124 7.29163 18.9583 9.24579 18.9583 11.6666C18.9583 14.0875 20.9124 16.0416 23.3333 16.0416ZM11.6666 16.0416C14.0874 16.0416 16.027 14.0875 16.027 11.6666C16.027 9.24579 14.0874 7.29163 11.6666 7.29163C9.24575 7.29163 7.29159 9.24579 7.29159 11.6666C7.29159 14.0875 9.24575 16.0416 11.6666 16.0416ZM11.6666 18.9583C8.26867 18.9583 1.45825 20.6645 1.45825 24.0625V27.7083H21.8749V24.0625C21.8749 20.6645 15.0645 18.9583 11.6666 18.9583ZM23.3333 18.9583C22.9103 18.9583 22.4291 18.9875 21.9187 19.0312C23.6103 20.2562 24.7916 21.9041 24.7916 24.0625V27.7083H33.5416V24.0625C33.5416 20.6645 26.7312 18.9583 23.3333 18.9583Z" fill="white" fill-opacity="0.7"/>
</svg>
